<mxfile host="app.diagrams.net" modified="2020-11-10T02:44:08.932Z" agent="5.0 (Windows NT 10.0; Win64; x64) AppleWebKit/537.36 (KHTML, like Gecko) Chrome/86.0.4240.183 Safari/537.36" etag="ZUkxe2utTVfjPhXY2gG6" version="13.9.2" type="github" pages="4">
  <diagram id="PulOCDqJ7PH4Gsll6wzy" name="个人中心">
    <mxGraphModel dx="782" dy="475" grid="1" gridSize="10" guides="1" tooltips="1" connect="1" arrows="1" fold="1" page="1" pageScale="1" pageWidth="827" pageHeight="1169" math="0" shadow="0">
      <root>
        <mxCell id="0" />
        <mxCell id="1" parent="0" />
      </root>
    </mxGraphModel>
  </diagram>
  <diagram id="geMSgy2vZw3pPHmmgWgW" name="用户管理">
    <mxGraphModel dx="782" dy="475" grid="1" gridSize="10" guides="1" tooltips="1" connect="1" arrows="1" fold="1" page="1" pageScale="1" pageWidth="827" pageHeight="1169" math="0" shadow="0">
      <root>
        <mxCell id="11GKkSWB3WE3Wizu72le-0" />
        <mxCell id="11GKkSWB3WE3Wizu72le-1" parent="11GKkSWB3WE3Wizu72le-0" />
      </root>
    </mxGraphModel>
  </diagram>
  <diagram id="Q-3SCxS6YAnn2FO1DM1-" name="骑手管理">
    <mxGraphModel dx="782" dy="475" grid="1" gridSize="10" guides="1" tooltips="1" connect="1" arrows="1" fold="1" page="1" pageScale="1" pageWidth="827" pageHeight="1169" math="0" shadow="0">
      <root>
        <mxCell id="cI7JtCbgcWBsKcCZg1-o-0" />
        <mxCell id="cI7JtCbgcWBsKcCZg1-o-1" parent="cI7JtCbgcWBsKcCZg1-o-0" />
      </root>
    </mxGraphModel>
  </diagram>
  <diagram id="eN-pIjnXDZjU6w4TwNOH" name="商户管理">
    <mxGraphModel dx="782" dy="475" grid="1" gridSize="10" guides="1" tooltips="1" connect="1" arrows="1" fold="1" page="1" pageScale="1" pageWidth="827" pageHeight="1169" math="0" shadow="0">
      <root>
        <mxCell id="OGjnlekPCRy5oSB4yvzF-0" />
        <mxCell id="OGjnlekPCRy5oSB4yvzF-1" parent="OGjnlekPCRy5oSB4yvzF-0" />
        <mxCell id="OGjnlekPCRy5oSB4yvzF-2" value="管理员&lt;br&gt;" style="rounded=1;whiteSpace=wrap;html=1;" vertex="1" parent="OGjnlekPCRy5oSB4yvzF-1">
          <mxGeometry x="40" y="190" width="120" height="60" as="geometry" />
        </mxCell>
        <mxCell id="OGjnlekPCRy5oSB4yvzF-3" value="登录or注册" style="ellipse;whiteSpace=wrap;html=1;aspect=fixed;" vertex="1" parent="OGjnlekPCRy5oSB4yvzF-1">
          <mxGeometry x="250" y="180" width="80" height="80" as="geometry" />
        </mxCell>
        <mxCell id="OGjnlekPCRy5oSB4yvzF-4" value="" style="endArrow=classic;html=1;exitX=1;exitY=0.5;exitDx=0;exitDy=0;" edge="1" parent="OGjnlekPCRy5oSB4yvzF-1" source="OGjnlekPCRy5oSB4yvzF-2">
          <mxGeometry width="50" height="50" relative="1" as="geometry">
            <mxPoint x="380" y="260" as="sourcePoint" />
            <mxPoint x="250" y="220" as="targetPoint" />
          </mxGeometry>
        </mxCell>
        <mxCell id="OGjnlekPCRy5oSB4yvzF-5" value="" style="endArrow=classic;html=1;exitX=1;exitY=0.5;exitDx=0;exitDy=0;" edge="1" parent="OGjnlekPCRy5oSB4yvzF-1" source="OGjnlekPCRy5oSB4yvzF-3">
          <mxGeometry width="50" height="50" relative="1" as="geometry">
            <mxPoint x="400" y="230" as="sourcePoint" />
            <mxPoint x="580" y="220" as="targetPoint" />
            <Array as="points" />
          </mxGeometry>
        </mxCell>
        <mxCell id="OGjnlekPCRy5oSB4yvzF-6" value="登录" style="text;html=1;align=center;verticalAlign=middle;resizable=0;points=[];autosize=1;" vertex="1" parent="OGjnlekPCRy5oSB4yvzF-1">
          <mxGeometry x="380" y="190" width="40" height="20" as="geometry" />
        </mxCell>
        <mxCell id="OGjnlekPCRy5oSB4yvzF-7" value="" style="endArrow=classic;html=1;exitX=0.5;exitY=0;exitDx=0;exitDy=0;" edge="1" parent="OGjnlekPCRy5oSB4yvzF-1" source="OGjnlekPCRy5oSB4yvzF-3">
          <mxGeometry width="50" height="50" relative="1" as="geometry">
            <mxPoint x="280" y="180" as="sourcePoint" />
            <mxPoint x="290" y="110" as="targetPoint" />
          </mxGeometry>
        </mxCell>
        <mxCell id="OGjnlekPCRy5oSB4yvzF-8" value="注册" style="text;html=1;align=center;verticalAlign=middle;resizable=0;points=[];autosize=1;" vertex="1" parent="OGjnlekPCRy5oSB4yvzF-1">
          <mxGeometry x="250" y="140" width="40" height="20" as="geometry" />
        </mxCell>
        <mxCell id="OGjnlekPCRy5oSB4yvzF-10" style="edgeStyle=orthogonalEdgeStyle;rounded=0;orthogonalLoop=1;jettySize=auto;html=1;exitX=1;exitY=0.5;exitDx=0;exitDy=0;" edge="1" parent="OGjnlekPCRy5oSB4yvzF-1" source="OGjnlekPCRy5oSB4yvzF-9">
          <mxGeometry relative="1" as="geometry">
            <mxPoint x="480" y="70" as="targetPoint" />
          </mxGeometry>
        </mxCell>
        <mxCell id="OGjnlekPCRy5oSB4yvzF-9" value="工号绑定注册" style="ellipse;whiteSpace=wrap;html=1;aspect=fixed;" vertex="1" parent="OGjnlekPCRy5oSB4yvzF-1">
          <mxGeometry x="250" y="30" width="80" height="80" as="geometry" />
        </mxCell>
      </root>
    </mxGraphModel>
  </diagram>
</mxfile>
